G04*
G04 #@! TF.GenerationSoftware,Altium Limited,Altium Designer,24.1.2 (44)*
G04*
G04 Layer_Color=65535*
%FSLAX44Y44*%
%MOMM*%
G71*
G04*
G04 #@! TF.SameCoordinates,DC8CE985-C91A-4BCA-97F7-030060148ACE*
G04*
G04*
G04 #@! TF.FilePolarity,Positive*
G04*
G01*
G75*
%ADD10C,0.2500*%
%ADD11C,0.2000*%
%ADD12C,0.6000*%
%ADD13C,0.1270*%
%ADD14C,0.2540*%
D10*
X764710Y297010D02*
G03*
X764710Y297010I-1250J0D01*
G01*
X788080Y306240D02*
G03*
X788080Y306240I-1250J0D01*
G01*
X364470Y1098180D02*
G03*
X364470Y1098180I-1250J0D01*
G01*
X363200Y345070D02*
G03*
X363200Y345070I-1250J0D01*
G01*
X860130Y758410D02*
G03*
X860130Y758410I-1250J0D01*
G01*
X525460Y972820D02*
G03*
X525460Y972820I-1250J0D01*
G01*
D11*
X808650Y743870D02*
G03*
X808650Y743870I-1000J0D01*
G01*
X514910Y1004570D02*
G03*
X514910Y1017270I0J6350D01*
G01*
X633960Y273510D02*
Y331010D01*
Y273510D02*
X757960D01*
Y331010D01*
X633960D02*
X757960D01*
X793580Y272240D02*
Y329740D01*
Y272240D02*
X867580D01*
Y329740D01*
X793580D02*
X867580D01*
X339720Y1104930D02*
Y1178930D01*
X397220D01*
Y1104930D02*
Y1178930D01*
X339720Y1104930D02*
X397220D01*
X338450Y351820D02*
Y425820D01*
X395950D01*
Y351820D02*
Y425820D01*
X338450Y351820D02*
X395950D01*
X911330Y782870D02*
Y824910D01*
X851430Y782870D02*
Y824910D01*
X870090Y833860D02*
X892380D01*
X870090Y773960D02*
X892670D01*
X607380Y931770D02*
Y935020D01*
Y909020D02*
Y912270D01*
Y909020D02*
X647380D01*
Y931770D02*
Y935020D01*
Y909020D02*
Y912270D01*
X607380Y935020D02*
X647380D01*
X769300Y413720D02*
Y416970D01*
Y436470D02*
Y439720D01*
X729300D02*
X769300D01*
X729300Y413720D02*
Y416970D01*
Y436470D02*
Y439720D01*
Y413720D02*
X769300D01*
X711910Y984420D02*
Y1037420D01*
X514910Y1017270D02*
Y1037420D01*
Y984420D02*
Y1004570D01*
Y1037420D02*
X711910D01*
X514910Y984420D02*
X711910D01*
D12*
X527910Y994420D02*
G03*
X527910Y994420I-3000J0D01*
G01*
D13*
X336950Y737670D02*
X818950D01*
X336950Y458670D02*
X818950D01*
Y508170D01*
Y688170D02*
Y737670D01*
Y688170D02*
X880950D01*
Y508170D02*
Y688170D01*
X818950Y508170D02*
X880950D01*
X336950Y638870D02*
Y737670D01*
X327950Y638870D02*
X336950D01*
X327950Y557570D02*
Y638870D01*
Y557570D02*
X336950D01*
Y458670D02*
Y557570D01*
X890050Y405890D02*
X926050D01*
Y500890D01*
X890050D02*
X926050D01*
X890050Y405890D02*
Y500890D01*
X748540Y357920D02*
Y393920D01*
X653540D02*
X748540D01*
X653540Y357920D02*
Y393920D01*
Y357920D02*
X748540D01*
X350300Y903730D02*
Y998730D01*
X386300D01*
Y903730D02*
Y998730D01*
X350300Y903730D02*
X386300D01*
X793530Y954530D02*
Y1049530D01*
X829530D01*
Y954530D02*
Y1049530D01*
X793530Y954530D02*
X829530D01*
X855760Y951990D02*
Y1046990D01*
X891760D01*
Y951990D02*
Y1046990D01*
X855760Y951990D02*
X891760D01*
X501430Y802130D02*
Y897130D01*
X537430D01*
Y802130D02*
Y897130D01*
X501430Y802130D02*
X537430D01*
X684310Y789430D02*
Y884430D01*
X720310D01*
Y789430D02*
Y884430D01*
X684310Y789430D02*
X720310D01*
X673860Y1168620D02*
X768860D01*
Y1132620D02*
Y1168620D01*
X673860Y1132620D02*
X768860D01*
X673860D02*
Y1168620D01*
X778730Y791970D02*
Y886970D01*
X742730Y791970D02*
X778730D01*
X742730D02*
Y886970D01*
X778730D01*
X489710Y1132620D02*
X584710D01*
X489710D02*
Y1168620D01*
X584710D01*
Y1132620D02*
Y1168620D01*
D14*
X645161Y353058D02*
X640082D01*
X642622D01*
Y340362D01*
X640082Y337822D01*
X637543D01*
X635004Y340362D01*
X650239Y350518D02*
X652778Y353058D01*
X657857D01*
X660396Y350518D01*
Y347979D01*
X657857Y345440D01*
X655318D01*
X657857D01*
X660396Y342901D01*
Y340362D01*
X657857Y337822D01*
X652778D01*
X650239Y340362D01*
X563984Y758187D02*
Y745492D01*
X566523Y742952D01*
X571602D01*
X574141Y745492D01*
Y758187D01*
X589376Y742952D02*
X579219D01*
X589376Y753109D01*
Y755648D01*
X586837Y758187D01*
X581758D01*
X579219Y755648D01*
X843286Y455933D02*
Y471167D01*
X850904D01*
X853443Y468628D01*
Y463550D01*
X850904Y461011D01*
X843286D01*
X848364D02*
X853443Y455933D01*
X858521D02*
X863600D01*
X861060D01*
Y471167D01*
X858521Y468628D01*
X871217D02*
X873756Y471167D01*
X878835D01*
X881374Y468628D01*
Y458472D01*
X878835Y455933D01*
X873756D01*
X871217Y458472D01*
Y468628D01*
X886461Y325117D02*
X881383D01*
X883922D01*
Y312422D01*
X881383Y309883D01*
X878843D01*
X876304Y312422D01*
X899157Y309883D02*
Y325117D01*
X891539Y317500D01*
X901696D01*
X576577Y298445D02*
X571499D01*
X568960Y295906D01*
Y285749D01*
X571499Y283210D01*
X576577D01*
X579117Y285749D01*
Y295906D01*
X576577Y298445D01*
X584195D02*
Y283210D01*
X594352D01*
X609587Y298445D02*
X599430D01*
Y283210D01*
X609587D01*
X599430Y290828D02*
X604509D01*
X614665Y298445D02*
Y283210D01*
X622283D01*
X624822Y285749D01*
Y295906D01*
X622283Y298445D01*
X614665D01*
X417830Y1092200D02*
X402595D01*
Y1099818D01*
X405134Y1102357D01*
X410213D01*
X412752Y1099818D01*
Y1092200D01*
Y1097278D02*
X417830Y1102357D01*
Y1115053D02*
Y1109974D01*
X415291Y1107435D01*
X410213D01*
X407673Y1109974D01*
Y1115053D01*
X410213Y1117592D01*
X412752D01*
Y1107435D01*
X407673Y1132827D02*
Y1125209D01*
X410213Y1122670D01*
X415291D01*
X417830Y1125209D01*
Y1132827D01*
Y1145523D02*
Y1140444D01*
X415291Y1137905D01*
X410213D01*
X407673Y1140444D01*
Y1145523D01*
X410213Y1148062D01*
X412752D01*
Y1137905D01*
X417830Y1153140D02*
Y1158219D01*
Y1155679D01*
X407673D01*
Y1153140D01*
Y1165836D02*
X417830Y1170915D01*
X407673Y1175993D01*
X417830Y1188689D02*
Y1183610D01*
X415291Y1181071D01*
X410213D01*
X407673Y1183610D01*
Y1188689D01*
X410213Y1191228D01*
X412752D01*
Y1181071D01*
X407673Y1196306D02*
X417830D01*
X412752D01*
X410213Y1198846D01*
X407673Y1201385D01*
Y1203924D01*
X406405Y351787D02*
Y341630D01*
X421640D01*
Y351787D01*
X414022Y341630D02*
Y346708D01*
X421640Y356865D02*
X411483D01*
Y359404D01*
X414022Y361943D01*
X421640D01*
X414022D01*
X411483Y364483D01*
X414022Y367022D01*
X421640D01*
Y372100D02*
Y377178D01*
Y374639D01*
X411483D01*
Y372100D01*
X408944Y387335D02*
X411483D01*
Y384796D01*
Y389874D01*
Y387335D01*
X419101D01*
X421640Y389874D01*
X408944Y400031D02*
X411483D01*
Y397492D01*
Y402570D01*
Y400031D01*
X419101D01*
X421640Y402570D01*
Y417805D02*
Y412727D01*
X419101Y410188D01*
X414022D01*
X411483Y412727D01*
Y417805D01*
X414022Y420345D01*
X416562D01*
Y410188D01*
X411483Y425423D02*
X421640D01*
X416562D01*
X414022Y427962D01*
X411483Y430501D01*
Y433040D01*
X453394Y295907D02*
X450855Y293368D01*
Y288289D01*
X453394Y285750D01*
X463551D01*
X466090Y288289D01*
Y293368D01*
X463551Y295907D01*
X458473D01*
Y290828D01*
X466090Y300985D02*
Y306063D01*
Y303524D01*
X450855D01*
Y300985D01*
X455933Y313681D02*
X463551D01*
X466090Y316220D01*
Y323838D01*
X455933D01*
Y339073D02*
Y331455D01*
X458473Y328916D01*
X463551D01*
X466090Y331455D01*
Y339073D01*
Y346690D02*
Y351769D01*
X463551Y354308D01*
X458473D01*
X455933Y351769D01*
Y346690D01*
X458473Y344151D01*
X463551D01*
X466090Y346690D01*
Y359386D02*
X450855D01*
Y367004D01*
X453394Y369543D01*
X458473D01*
X461012Y367004D01*
Y359386D01*
X455933Y377160D02*
Y382239D01*
X458473Y384778D01*
X466090D01*
Y377160D01*
X463551Y374621D01*
X461012Y377160D01*
Y384778D01*
X466090Y389856D02*
Y394935D01*
Y392396D01*
X450855D01*
Y389856D01*
X502925Y294637D02*
Y284480D01*
X518160D01*
Y294637D01*
X510542Y284480D02*
Y289558D01*
X518160Y299715D02*
X502925D01*
X518160Y309872D01*
X502925D01*
Y314950D02*
Y325107D01*
Y320028D01*
X518160D01*
X505464Y340342D02*
X502925Y337803D01*
Y332724D01*
X505464Y330185D01*
X515621D01*
X518160Y332724D01*
Y337803D01*
X515621Y340342D01*
X528325Y285750D02*
X541021D01*
X543560Y288289D01*
Y293368D01*
X541021Y295907D01*
X528325D01*
X543560Y303524D02*
Y308603D01*
X541021Y311142D01*
X535942D01*
X533403Y308603D01*
Y303524D01*
X535942Y300985D01*
X541021D01*
X543560Y303524D01*
Y316220D02*
X528325D01*
X533403Y321298D01*
X528325Y326377D01*
X543560D01*
X491492Y285750D02*
X476257D01*
X491492Y295907D01*
X476257D01*
X491492Y308603D02*
Y303524D01*
X488952Y300985D01*
X483874D01*
X481335Y303524D01*
Y308603D01*
X483874Y311142D01*
X486413D01*
Y300985D01*
X481335Y316220D02*
X488952D01*
X491492Y318759D01*
Y326377D01*
X481335D01*
Y331455D02*
X491492D01*
X486413D01*
X483874Y333994D01*
X481335Y336534D01*
Y339073D01*
X491492Y349230D02*
Y354308D01*
X488952Y356847D01*
X483874D01*
X481335Y354308D01*
Y349230D01*
X483874Y346690D01*
X488952D01*
X491492Y349230D01*
X476257Y361925D02*
X491492D01*
Y369543D01*
X488952Y372082D01*
X486413D01*
X483874Y369543D01*
Y361925D01*
Y369543D01*
X481335Y372082D01*
X478796D01*
X476257Y369543D01*
Y361925D01*
X481335Y377160D02*
X488952D01*
X491492Y379700D01*
Y387317D01*
X494031D01*
X496570Y384778D01*
Y382239D01*
X491492Y387317D02*
X481335D01*
X478796Y394935D02*
X481335D01*
Y392396D01*
Y397474D01*
Y394935D01*
X488952D01*
X491492Y397474D01*
Y412709D02*
Y407631D01*
X488952Y405091D01*
X483874D01*
X481335Y407631D01*
Y412709D01*
X483874Y415248D01*
X486413D01*
Y405091D01*
X491492Y420326D02*
Y427944D01*
X488952Y430483D01*
X486413Y427944D01*
Y422866D01*
X483874Y420326D01*
X481335Y422866D01*
Y430483D01*
X377187Y773426D02*
X374647Y775965D01*
X369569D01*
X367030Y773426D01*
Y763269D01*
X369569Y760730D01*
X374647D01*
X377187Y763269D01*
Y768347D01*
X372108D01*
X382265Y760730D02*
Y775965D01*
X392422Y760730D01*
Y775965D01*
X397500D02*
Y760730D01*
X405118D01*
X407657Y763269D01*
Y773426D01*
X405118Y775965D01*
X397500D01*
X363220Y806448D02*
X373377D01*
X368298Y811526D02*
Y801369D01*
X388612Y814065D02*
X378455D01*
Y806448D01*
X383533Y808987D01*
X386073D01*
X388612Y806448D01*
Y801369D01*
X386073Y798830D01*
X380994D01*
X378455Y801369D01*
X393690Y814065D02*
Y803908D01*
X398769Y798830D01*
X403847Y803908D01*
Y814065D01*
X862835Y865374D02*
X860295Y867913D01*
X855217D01*
X852678Y865374D01*
Y862835D01*
X855217Y860295D01*
X860295D01*
X862835Y857756D01*
Y855217D01*
X860295Y852678D01*
X855217D01*
X852678Y855217D01*
X867913Y867913D02*
Y852678D01*
X872991Y857756D01*
X878070Y852678D01*
Y867913D01*
X883148Y852678D02*
X888226D01*
X885687D01*
Y867913D01*
X883148Y865374D01*
X514604Y1082543D02*
Y1069847D01*
X517143Y1067308D01*
X522221D01*
X524761Y1069847D01*
Y1082543D01*
X529839Y1067308D02*
X534917D01*
X532378D01*
Y1082543D01*
X529839Y1080004D01*
X453898Y1179068D02*
Y1194303D01*
X461516D01*
X464055Y1191764D01*
Y1186685D01*
X461516Y1184146D01*
X453898D01*
X458976D02*
X464055Y1179068D01*
X469133Y1181607D02*
X471672Y1179068D01*
X476751D01*
X479290Y1181607D01*
Y1191764D01*
X476751Y1194303D01*
X471672D01*
X469133Y1191764D01*
Y1189225D01*
X471672Y1186685D01*
X479290D01*
X742442Y932942D02*
Y948177D01*
X750060D01*
X752599Y945638D01*
Y940559D01*
X750060Y938020D01*
X742442D01*
X747520D02*
X752599Y932942D01*
X757677Y945638D02*
X760216Y948177D01*
X765295D01*
X767834Y945638D01*
Y943099D01*
X765295Y940559D01*
X767834Y938020D01*
Y935481D01*
X765295Y932942D01*
X760216D01*
X757677Y935481D01*
Y938020D01*
X760216Y940559D01*
X757677Y943099D01*
Y945638D01*
X760216Y940559D02*
X765295D01*
X855472Y1092962D02*
Y1108197D01*
X863090D01*
X865629Y1105658D01*
Y1100580D01*
X863090Y1098040D01*
X855472D01*
X860550D02*
X865629Y1092962D01*
X870707Y1108197D02*
X880864D01*
Y1105658D01*
X870707Y1095501D01*
Y1092962D01*
X793242Y1095502D02*
Y1110737D01*
X800860D01*
X803399Y1108198D01*
Y1103120D01*
X800860Y1100580D01*
X793242D01*
X798320D02*
X803399Y1095502D01*
X818634Y1110737D02*
X813555Y1108198D01*
X808477Y1103120D01*
Y1098041D01*
X811016Y1095502D01*
X816095D01*
X818634Y1098041D01*
Y1100580D01*
X816095Y1103120D01*
X808477D01*
X684022Y930402D02*
Y945637D01*
X691639D01*
X694179Y943098D01*
Y938019D01*
X691639Y935480D01*
X684022D01*
X689100D02*
X694179Y930402D01*
X709414Y945637D02*
X699257D01*
Y938019D01*
X704335Y940559D01*
X706875D01*
X709414Y938019D01*
Y932941D01*
X706875Y930402D01*
X701796D01*
X699257Y932941D01*
X638048Y1179068D02*
Y1194303D01*
X645666D01*
X648205Y1191764D01*
Y1186685D01*
X645666Y1184146D01*
X638048D01*
X643126D02*
X648205Y1179068D01*
X660901D02*
Y1194303D01*
X653283Y1186685D01*
X663440D01*
X350012Y1044702D02*
Y1059937D01*
X357630D01*
X360169Y1057398D01*
Y1052319D01*
X357630Y1049780D01*
X350012D01*
X355090D02*
X360169Y1044702D01*
X365247Y1057398D02*
X367786Y1059937D01*
X372865D01*
X375404Y1057398D01*
Y1054859D01*
X372865Y1052319D01*
X370325D01*
X372865D01*
X375404Y1049780D01*
Y1047241D01*
X372865Y1044702D01*
X367786D01*
X365247Y1047241D01*
X617728Y404368D02*
Y419603D01*
X625345D01*
X627885Y417064D01*
Y411986D01*
X625345Y409446D01*
X617728D01*
X622806D02*
X627885Y404368D01*
X643120D02*
X632963D01*
X643120Y414525D01*
Y417064D01*
X640581Y419603D01*
X635502D01*
X632963Y417064D01*
X501142Y943102D02*
Y958337D01*
X508759D01*
X511299Y955798D01*
Y950720D01*
X508759Y948180D01*
X501142D01*
X506220D02*
X511299Y943102D01*
X516377D02*
X521455D01*
X518916D01*
Y958337D01*
X516377Y955798D01*
X350517Y1203701D02*
X345438D01*
X347977D01*
Y1191005D01*
X345438Y1188466D01*
X342899D01*
X340360Y1191005D01*
X365752Y1188466D02*
X355595D01*
X365752Y1198623D01*
Y1201162D01*
X363213Y1203701D01*
X358134D01*
X355595Y1201162D01*
X349247Y450591D02*
X344168D01*
X346707D01*
Y437895D01*
X344168Y435356D01*
X341629D01*
X339090Y437895D01*
X354325Y435356D02*
X359403D01*
X356864D01*
Y450591D01*
X354325Y448052D01*
X607057Y957322D02*
X604518Y959861D01*
X599439D01*
X596900Y957322D01*
Y947165D01*
X599439Y944626D01*
X604518D01*
X607057Y947165D01*
X622292Y944626D02*
X612135D01*
X622292Y954783D01*
Y957322D01*
X619753Y959861D01*
X614674D01*
X612135Y957322D01*
X700170Y430528D02*
X697631Y433068D01*
X692552D01*
X690013Y430528D01*
Y420372D01*
X692552Y417832D01*
X697631D01*
X700170Y420372D01*
X705248Y417832D02*
X710327D01*
X707787D01*
Y433068D01*
X705248Y430528D01*
M02*
