G04*
G04 #@! TF.GenerationSoftware,Altium Limited,Altium Designer,24.1.2 (44)*
G04*
G04 Layer_Physical_Order=1*
G04 Layer_Color=255*
%FSLAX44Y44*%
%MOMM*%
G71*
G04*
G04 #@! TF.SameCoordinates,DC8CE985-C91A-4BCA-97F7-030060148ACE*
G04*
G04*
G04 #@! TF.FilePolarity,Positive*
G04*
G01*
G75*
%ADD14C,0.2540*%
%ADD15R,1.4000X1.4000*%
%ADD16C,1.4000*%
%ADD20C,1.5500*%
%ADD21R,1.5500X1.5500*%
%ADD22R,1.5500X1.5500*%
%ADD26C,1.2000*%
%ADD27R,1.2000X1.2000*%
%ADD28C,0.5080*%
%ADD29R,1.5300X1.5300*%
%ADD30C,1.5300*%
%ADD31C,1.4080*%
%ADD32R,1.5000X1.5000*%
%ADD33C,1.5000*%
%ADD34C,1.5240*%
D14*
X613410Y830894D02*
X703864Y740440D01*
X602380Y841924D02*
X613410Y830894D01*
X602380Y841924D02*
Y922020D01*
X829310Y439420D02*
Y735976D01*
X816610Y426720D02*
X829310Y439420D01*
X774300Y426720D02*
X816610D01*
X613410Y830894D02*
Y972820D01*
X703864Y740440D02*
X824846D01*
X829310Y735976D01*
X777040Y347281D02*
Y375920D01*
Y347281D02*
X818080Y306240D01*
X831880Y320040D01*
X850700D01*
X908050Y377390D01*
X363220Y1032310D02*
X368300Y1027230D01*
X363220Y1032310D02*
Y1129430D01*
X519430Y773630D02*
X562610Y816810D01*
Y972820D01*
X519430Y925630D02*
X537210Y943410D01*
Y972820D01*
X811530Y790448D02*
Y926030D01*
X773684Y752602D02*
X811530Y790448D01*
X710638Y752602D02*
X773684D01*
X702310Y760930D02*
X710638Y752602D01*
X645360Y1067870D02*
X664210Y1049020D01*
X645360Y1067870D02*
Y1150620D01*
X702310Y912930D02*
X760730Y854510D01*
Y763470D02*
Y854510D01*
X702310Y912930D02*
Y960120D01*
X689610Y972820D02*
X702310Y960120D01*
X638810Y1049020D02*
Y1125020D01*
X613210Y1150620D02*
X638810Y1125020D01*
X576580Y853440D02*
X704850Y725170D01*
X576580Y853440D02*
Y981710D01*
X579120Y984250D01*
X624840D01*
X689610Y1049020D01*
X781304Y1140714D01*
X787454D01*
X797360Y1150620D01*
X870712Y566728D02*
X908050Y529390D01*
X870712Y566728D02*
Y824578D01*
X858880Y836410D02*
X870712Y824578D01*
X683460Y297010D02*
X740156Y353706D01*
Y455676D01*
X755650Y471170D01*
X658460Y297010D02*
X679450Y318000D01*
Y471170D01*
X805180Y353056D02*
X807719Y355595D01*
X812797D01*
X815337Y353056D01*
Y350517D01*
X812797Y347977D01*
X810258D01*
X812797D01*
X815337Y345438D01*
Y342899D01*
X812797Y340360D01*
X807719D01*
X805180Y342899D01*
X820415Y340360D02*
Y342899D01*
X822954D01*
Y340360D01*
X820415D01*
X833111Y353056D02*
X835650Y355595D01*
X840729D01*
X843268Y353056D01*
Y350517D01*
X840729Y347977D01*
X838189D01*
X840729D01*
X843268Y345438D01*
Y342899D01*
X840729Y340360D01*
X835650D01*
X833111Y342899D01*
X848346Y355595D02*
Y345438D01*
X853424Y340360D01*
X858503Y345438D01*
Y355595D01*
D15*
X733460Y297010D02*
D03*
D16*
X708460D02*
D03*
X683460D02*
D03*
X658460D02*
D03*
D20*
X843080Y306240D02*
D03*
X363220Y1154430D02*
D03*
X361950Y401320D02*
D03*
D21*
X818080Y306240D02*
D03*
D22*
X363220Y1129430D02*
D03*
X361950Y376320D02*
D03*
D26*
X652380Y922020D02*
D03*
X724300Y426720D02*
D03*
D27*
X602380Y922020D02*
D03*
X774300Y426720D02*
D03*
D28*
X349250Y725170D02*
X360680Y736600D01*
Y788670D01*
X344170Y805180D02*
X360680Y788670D01*
X344170Y805180D02*
Y851100D01*
X368300Y875230D01*
X774300Y402536D02*
Y426720D01*
Y402536D02*
X777040Y399796D01*
Y375920D02*
Y399796D01*
D29*
X806450Y725170D02*
D03*
D30*
X781050D02*
D03*
X755650D02*
D03*
X730250D02*
D03*
X704850D02*
D03*
X679450D02*
D03*
X654050D02*
D03*
X628650D02*
D03*
X603250D02*
D03*
X577850D02*
D03*
X552450D02*
D03*
X527050D02*
D03*
X501650D02*
D03*
X476250D02*
D03*
X450850D02*
D03*
X425450D02*
D03*
X400050D02*
D03*
X374650D02*
D03*
X349250D02*
D03*
Y471170D02*
D03*
X374650D02*
D03*
X400050D02*
D03*
X425450D02*
D03*
X450850D02*
D03*
X476250D02*
D03*
X501650D02*
D03*
X527050D02*
D03*
X552450D02*
D03*
X577850D02*
D03*
X603250D02*
D03*
X628650D02*
D03*
X654050D02*
D03*
X679450D02*
D03*
X704850D02*
D03*
X730250D02*
D03*
X755650D02*
D03*
X781050D02*
D03*
X806450D02*
D03*
D31*
X908050Y529390D02*
D03*
Y377390D02*
D03*
X625040Y375920D02*
D03*
X777040D02*
D03*
X368300Y875230D02*
D03*
Y1027230D02*
D03*
X811530Y926030D02*
D03*
Y1078030D02*
D03*
X873760Y923490D02*
D03*
Y1075490D02*
D03*
X519430Y773630D02*
D03*
Y925630D02*
D03*
X702310Y760930D02*
D03*
Y912930D02*
D03*
X645360Y1150620D02*
D03*
X797360D02*
D03*
X760730Y915470D02*
D03*
Y763470D02*
D03*
X613210Y1150620D02*
D03*
X461210D02*
D03*
D32*
X858880Y771410D02*
D03*
X537210Y972820D02*
D03*
D33*
X903880Y771410D02*
D03*
Y836410D02*
D03*
X858880D02*
D03*
X689610Y1049020D02*
D03*
X664210D02*
D03*
X638810D02*
D03*
X613410D02*
D03*
X588010D02*
D03*
X562610D02*
D03*
X537210D02*
D03*
X689610Y972820D02*
D03*
X664210D02*
D03*
X638810D02*
D03*
X613410D02*
D03*
X588010D02*
D03*
X562610D02*
D03*
D34*
X344170Y767080D02*
D03*
Y805180D02*
D03*
M02*
