M48
;Layer_Color=9474304
;FILE_FORMAT=4:4
METRIC,LZ
;TYPE=PLATED
T01F00S00C0.7000
T02F00S00C0.7620
T03F00S00C0.9000
T04F00S00C0.9900
T05F00S00C1.0000
T06F00S00C1.0200
;TYPE=NON_PLATED
T07F00S00C3.4000
%
T01
X007243Y0042672
X007743
X0065238Y0092202
X0060238
T02
X0034417Y0076708
Y0080518
T03
X0065846Y0029701
X0068346
X0070846
X0073346
X0077704Y0037592
X0062504
X0090805Y0037739
Y0052939
X0076073Y0076347
X0070231Y0076093
X0051943Y0077363
X003683Y0087523
Y0102723
X0053721Y0104902
X0056261
X0058801
X0061341
X0063881
X0066421
X0068961
Y0097282
X0066421
X0063881
X0061341
X0058801
X0056261
X0053721
X0051943Y0092563
X0070231Y0091293
X0076073Y0091547
X0064536Y0115062
X0061321
X0046121
X0079736
X0081153Y0107803
X0087376Y0107549
Y0092349
X0081153Y0092603
T04
X0085888Y0077141
X0090388
Y0083641
X0085888
T05
X0036195Y0037632
X0081808Y0030624
X0084308
X0036195Y0040132
X0036322Y0112943
Y0115443
T06
X0080645Y0047117
Y0072517
X0078105
X0075565
X0073025
X0070485
X0067945
X0065405
X0062865
X0060325
X0057785
X0055245
X0052705
X0050165
X0047625
X0045085
X0042545
X0040005
Y0047117
X0042545
X0045085
X0047625
X0050165
X0052705
X0055245
X0057785
X0060325
X0062865
X0065405
X0067945
X0070485
X0073025
X0075565
X0078105
X0037465
X0034925
Y0072517
X0037465
T07
X0035052Y002794
X00905358Y00279632
X0090551Y0124587
X0035052
M30
